<svg width="171" height="158" viewBox="0 0 171 158" fill="none" xmlns="http://www.w3.org/2000/svg">
<path d="M169 79C169 121.38 131.768 156 85.5 156C39.2324 156 2 121.38 2 79C2 36.62 39.2324 2 85.5 2C131.768 2 169 36.62 169 79Z" fill="#131417" stroke="#FF0509" stroke-width="4"/>
<path d="M120.615 47.8462H51.3846C45.5 47.8462 41 52.3462 41 58.2308V99.7693C41 105.654 45.5 110.154 51.3846 110.154H120.615C126.5 110.154 131 105.654 131 99.7693V58.2308C131 52.3462 126.5 47.8462 120.615 47.8462ZM123.385 101.154L96.3846 81.7693L86 88.6923L75.2692 81.7693L48.6154 101.154L70.4231 78.6539L43.7692 57.8847L86 80.7308L127.885 58.2308L101.577 79L123.385 101.154Z" fill="#FF0509"/>
</svg>
